<?xml version="1.0" encoding="UTF-8"?><svg id="Layer_2" xmlns="http://www.w3.org/2000/svg" viewBox="0 0 968.11 373.34"><defs><style>.cls-1{fill:#f9655b;}.cls-2{fill:#fff;}.cls-3{fill:#f5c070;}.cls-4{fill:#6658ea;}.cls-5{fill:#1f2937;}</style></defs><g id="Layer_1-2"><path class="cls-1" d="m164.06,153.96c8.08-5.86,14.89-13.37,19.94-22.02l11.86,6.85c-5,8.58-11.45,16.21-19.01,22.56"/><path class="cls-3" d="m194.68,201.7c1.76,9.93,5.24,19.27,10.12,27.69l11.86-6.85c-4.91-8.47-8.13-18.02-9.22-28.21"/><path class="cls-4" d="m150.76,213.01c-8.81-3.87-18.55-6.02-28.77-6.02v-13.67c10.1,0,19.78,1.75,28.77,4.97"/><path class="cls-5" d="m150.75,146.28l69.96,40.39-69.96,40.39v-80.78m-13.67-23.67v128.13l110.96-64.06-110.96-64.06h0Z"/><path class="cls-3" d="m207.44,194.33c-.27-2.52-.41-5.08-.41-7.66,0-13.06,3.51-25.31,9.63-35.87l-11.86-6.85c-7.27,12.57-11.43,27.16-11.43,42.72,0,5.13.45,10.15,1.32,15.03"/><path class="cls-4" d="m150.75,198.28c18.74,6.7,34.46,19.76,44.54,36.59l-11.86,6.85c-7.64-12.63-19.06-22.73-32.68-28.71"/><path class="cls-1" d="m121.98,181.29c20.89,0,40.02-7.5,54.87-19.94l-12.79-7.38c-11.83,8.59-26.37,13.66-42.07,13.66"/><path class="cls-5" d="m306.38,150.91h26.75v10.14c5.21-6.33,11.68-11.82,23.09-11.82,18.16,0,33.78,15.06,33.78,39.42v.28c0,24.78-15.63,39.84-33.64,39.84-11.54,0-18.3-5.21-23.23-10.98v31.81h-26.75v-98.68Zm57.29,38.15v-.28c0-10-6.9-17.17-15.63-17.17s-15.49,7.18-15.49,17.17v.28c0,10.14,6.9,17.32,15.49,17.32s15.63-7.04,15.63-17.32Z"/><path class="cls-5" d="m399.54,150.91h26.75v15.34c4.36-10.42,11.4-17.17,24.07-16.61v28.15c-16.78,0-24.07,8.02-24.07,25.62v23.65h-26.75v-76.16Z"/><path class="cls-5" d="m459.78,124.31h27.87v19.71h-27.87v-19.71Zm.56,26.61h26.75v76.16h-26.75v-76.16Z"/><path class="cls-5" d="m496.23,217.5l9.99-16.19c8.73,5.77,18.3,8.73,26.18,8.73,4.65,0,6.76-1.41,6.76-4.08v-.28c0-2.96-4.22-4.22-12.25-6.48-15.06-3.94-27.03-9.01-27.03-24.35v-.28c0-16.19,12.95-25.2,30.55-25.2,11.12,0,22.66,3.24,31.39,8.87l-9.15,16.89c-7.88-4.36-16.47-7.04-22.52-7.04-4.08,0-6.19,1.55-6.19,3.66v.28c0,2.96,4.36,4.36,12.39,6.76,15.06,4.22,27.03,9.43,27.03,24.21v.28c0,16.75-12.53,25.48-31.11,25.48-12.81,0-25.48-3.66-36.04-11.26Z"/><path class="cls-5" d="m574.35,150.91h26.75v10.42c4.93-6.33,11.97-12.11,22.66-12.11,10.14,0,17.88,4.5,21.96,12.39,6.62-7.6,14.36-12.39,25.48-12.39,16.19,0,26.04,10.14,26.04,27.87v49.97h-26.75v-41.39c0-8.31-4.08-12.67-10.42-12.67s-10.98,4.36-10.98,12.67v41.39h-26.75v-41.39c0-8.31-4.08-12.67-10.42-12.67s-10.84,4.36-10.84,12.67v41.39h-26.75v-76.16Z"/><path class="cls-5" d="m708.62,150.91h26.75v10.42c4.93-6.33,11.97-12.11,22.66-12.11,10.14,0,17.88,4.5,21.96,12.39,6.62-7.6,14.36-12.39,25.48-12.39,16.19,0,26.04,10.14,26.04,27.87v49.97h-26.75v-41.39c0-8.31-4.08-12.67-10.42-12.67s-10.98,4.36-10.98,12.67v41.39h-26.75v-41.39c0-8.31-4.08-12.67-10.42-12.67s-10.84,4.36-10.84,12.67v41.39h-26.75v-76.16Z"/></g></svg>
